<svg height="512pt" viewBox="0 -12 512 511" width="512pt" xmlns="http://www.w3.org/2000/svg"><path d="m414.242188 179.960938c4.246093-33.390626-1.964844-68.375-20.058594-99.710938-43.988282-76.195312-141.769532-102.394531-217.964844-58.402344-36.910156 21.308594-63.3125 55.71875-74.34375 96.886719-5.441406 20.300781-6.8125 41.042969-4.261719 61.285156-57.300781 24.230469-97.613281 81.019531-97.613281 147.046875 0 87.980469 71.578125 159.5625 159.5625 159.5625 36.207031 0 69.628906-12.132812 96.4375-32.53125 26.804688 20.398438 60.230469 32.53125 96.4375 32.53125 87.984375 0 159.5625-71.582031 159.5625-159.5625 0-66.082031-40.378906-122.90625-97.757812-147.105468zm-223.011719-132.113282c20.351562-11.75 42.585937-17.332031 64.550781-17.332031 44.800781 0 88.4375 23.238281 112.402344 64.746094 13.722656 23.769531 19.023437 50.121093 16.851562 75.59375-10.527344-2.195313-21.429687-3.355469-32.601562-3.355469-36.207032 0-69.628906 12.132812-96.4375 32.53125-26.804688-20.398438-60.226563-32.53125-96.433594-32.53125-11.183594 0-22.097656 1.164062-32.632812 3.363281-3.988282-48.414062 19.515624-97.160156 64.300781-123.015625zm97.871093 279.21875c0 33.160156-12.53125 63.449219-33.101562 86.386719-20.570312-22.9375-33.101562-53.226563-33.101562-86.386719 0-3.6875.160156-7.332031.464843-10.941406 10.789063 2.265625 21.816407 3.4375 32.90625 3.4375 10.792969 0 21.640625-1.113281 32.375-3.347656.296875 3.578125.457031 7.195312.457031 10.851562zm-59.765624-40.335937c5.652343-17.21875 14.824218-32.855469 26.664062-46.054688 11.851562 13.214844 21.03125 28.875 26.6875 46.117188-17.785156 3.730469-35.957031 3.605469-53.351562-.0625zm-28.472657-9.535157c-23.148437-10.855468-43.324219-28.625-57.046875-52.394531-4.574218-7.921875-8.207031-16.132812-10.949218-24.503906 8.621093-1.8125 17.546874-2.773437 26.695312-2.773437 27.480469 0 52.984375 8.609374 73.96875 23.261718-14.480469 16.183594-25.714844 35.332032-32.667969 56.410156zm77.605469-56.410156c20.984375-14.652344 46.488281-23.261718 73.96875-23.261718 9.121094 0 18.023438.957031 26.621094 2.757812-9.570313 29.3125-29.546875 55.339844-58.289063 71.933594-3.164062 1.828125-6.371093 3.496094-9.617187 5.027344-6.953125-21.097657-18.191406-40.261719-32.683594-56.457032zm-248.445312 106.28125c0-51.707031 30.453124-96.421875 74.359374-117.183594 3.40625 10.296876 7.882813 20.320313 13.433594 29.929688 18.085938 31.332031 45.277344 54.191406 76.3125 67.210938-.824218 6.566406-1.253906 13.253906-1.253906 20.042968 0 40.785156 15.390625 78.039063 40.660156 106.28125-20.988281 14.648438-46.492187 23.257813-73.96875 23.257813-71.433594 0-129.542968-58.113281-129.542968-129.539063zm322.414062 129.539063c-27.480469 0-52.984375-8.609375-73.96875-23.257813 25.265625-28.242187 40.65625-65.496094 40.65625-106.28125 0-6.761718-.425781-13.425781-1.246094-19.964844 6.070313-2.5625 12.050782-5.507812 17.902344-8.882812 35.332031-20.402344 59.90625-52.371094 71.722656-88.386719 43.96875 20.734375 74.472656 65.484375 74.472656 117.234375 0 71.425782-58.113281 129.539063-129.539062 129.539063zm0 0"/></svg>