<?xml version="1.0" encoding="iso-8859-1"?>
<!-- Generator: Adobe Illustrator 19.0.0, SVG Export Plug-In . SVG Version: 6.00 Build 0)  -->
<svg version="1.1" id="Capa_1" xmlns="http://www.w3.org/2000/svg" xmlns:xlink="http://www.w3.org/1999/xlink" x="0px" y="0px"
	 viewBox="0 0 480.115 480.115" style="enable-background:new 0 0 480.115 480.115;" xml:space="preserve">
<g>
	<g>
		<path d="M478.719,75.979c-3.406-9.56-12.465-15.938-22.614-15.92c-10.134,0.042-19.15,6.445-22.528,16h-25.472v-24
			c0-4.418-3.582-8-8-8h-320c-4.418,0-8,3.582-8,8v24H46.634c-4.418-12.497-18.131-19.046-30.627-14.627S-3.039,79.563,1.379,92.06
			c4.418,12.497,18.131,19.046,30.627,14.627c6.835-2.416,12.211-7.793,14.627-14.627h25.472v336
			c0.002,2.186,0.898,4.276,2.48,5.784c1.595,1.484,3.711,2.278,5.888,2.208l8-0.368c1.992-0.092,3.878-0.925,5.288-2.336
			l10.976-10.976c4.054-4.069,10.639-4.082,14.708-0.028c0.009,0.009,0.019,0.019,0.028,0.028l5.952,5.952
			c10.455,9.978,26.905,9.978,37.36,0l5.952-5.952c4.054-4.069,10.639-4.082,14.708-0.028c0.009,0.009,0.019,0.019,0.028,0.028
			l5.952,5.952c10.455,9.978,26.905,9.978,37.36,0l5.952-5.952c4.054-4.069,10.639-4.082,14.708-0.028
			c0.009,0.009,0.019,0.019,0.028,0.028l5.952,5.952c10.455,9.978,26.905,9.978,37.36,0l5.952-5.952
			c1.513-1.443,3.436-2.382,5.504-2.688c1.192,0.502,2.536,0.502,3.728,0c2.068,0.306,3.991,1.245,5.504,2.688l5.952,5.952
			c10.455,9.978,26.905,9.978,37.36,0l5.952-5.952c4.054-4.069,10.639-4.082,14.708-0.028c0.009,0.009,0.019,0.019,0.028,0.028
			l10.976,10.976c1.41,1.411,3.296,2.244,5.288,2.336l8,0.368h0.368c4.418,0,8-3.582,8-8V92.06h25.472
			c4.44,12.465,18.145,18.971,30.611,14.531C476.654,102.15,483.16,88.445,478.719,75.979z M24.106,92.06c-4.418,0-8-3.582-8-8
			s3.582-8,8-8s8,3.582,8,8S28.524,92.06,24.106,92.06z M392.106,416.38l-5.32-5.32c-10.303-10.317-27.019-10.328-37.335-0.025
			c-0.008,0.008-0.017,0.016-0.025,0.025l-5.952,5.952c-4.074,4.058-10.662,4.058-14.736,0l-5.952-5.952
			c-2.993-2.962-6.657-5.158-10.68-6.4v-88.6c0-4.418-3.582-8-8-8s-8,3.582-8,8v88.624c-4.023,1.242-7.687,3.438-10.68,6.4
			l-5.952,5.952c-4.074,4.058-10.662,4.058-14.736,0l-5.952-5.952c-10.303-10.317-27.019-10.328-37.335-0.025
			c-0.008,0.008-0.017,0.016-0.025,0.025l-5.952,5.952c-4.074,4.058-10.662,4.058-14.736,0l-5.952-5.952
			c-3.023-2.983-6.731-5.181-10.8-6.4c0-0.208,0.12-0.384,0.12-0.592V268.06c0-4.418-3.582-8-8-8s-8,3.582-8,8v136
			c0,0.208,0.104,0.384,0.12,0.592c-4.069,1.219-7.777,3.417-10.8,6.4l-5.952,5.952c-4.074,4.058-10.662,4.058-14.736,0
			l-5.952-5.952c-10.303-10.317-27.019-10.328-37.335-0.025c-0.008,0.008-0.017,0.016-0.025,0.025l-5.32,5.328V60.06h304V416.38z
			 M456.106,92.06c-4.418,0-8-3.582-8-8s3.582-8,8-8s8,3.582,8,8S460.524,92.06,456.106,92.06z"/>
	</g>
</g>
<g>
	<g>
		<path d="M216.106,76.06h-104c-4.418,0-8,3.582-8,8s3.582,8,8,8h104c4.418,0,8-3.582,8-8S220.524,76.06,216.106,76.06z"/>
	</g>
</g>
<g>
	<g>
		<path d="M368.106,76.06h-104c-4.418,0-8,3.582-8,8s3.582,8,8,8h104c4.418,0,8-3.582,8-8S372.524,76.06,368.106,76.06z"/>
	</g>
</g>
<g>
	<g>
		<path d="M368.106,116.06c-4.418,0-8,3.582-8,8v96c0,4.418,3.582,8,8,8s8-3.582,8-8v-96
			C376.106,119.641,372.524,116.06,368.106,116.06z"/>
	</g>
</g>
<g>
	<g>
		<path d="M240.106,148.06c-4.418,0-8,3.582-8,8v96c0,4.418,3.582,8,8,8s8-3.582,8-8v-96
			C248.106,151.641,244.524,148.06,240.106,148.06z"/>
	</g>
</g>
<g>
	<g>
		<path d="M304.106,252.06c-4.418,0-8,3.582-8,8v24c0,4.418,3.582,8,8,8s8-3.582,8-8v-24
			C312.106,255.641,308.524,252.06,304.106,252.06z"/>
	</g>
</g>
<g>
	<g>
		<path d="M176.106,212.06c-4.418,0-8,3.582-8,8v16c0,4.418,3.582,8,8,8s8-3.582,8-8v-16
			C184.106,215.641,180.524,212.06,176.106,212.06z"/>
	</g>
</g>
<g>
</g>
<g>
</g>
<g>
</g>
<g>
</g>
<g>
</g>
<g>
</g>
<g>
</g>
<g>
</g>
<g>
</g>
<g>
</g>
<g>
</g>
<g>
</g>
<g>
</g>
<g>
</g>
<g>
</g>
</svg>
